# xmcd
#
# Track frame offsets: 
#        150
#        18926
#        41366
#        54758
#        79574
#        116078
#        137462
#        161202
#        187146
#
# Disc length: 2847 seconds
#
# Revision: 0
# Processed by: cddbd v1.5.2PL0 Copyright (c) Steve Scherf et al.
# Submitted via: ExactAudioCopy v1.0b4
#
DISCID=6a0b1d09
DTITLE=Bugs Henderson - The King Of Clubs - The Texas Sessions [CD2)
DYEAR=2014
DGENRE=Blues
TTITLE0=Bugs Henderson - Love Junkie
TTITLE1=Bugs Henderson - Stabbed In The Back Again  
TTITLE2=Bugs Henderson - Lost In Austin 
TTITLE3=Bugs Henderson - Anthem For The Blues
TTITLE4=Bugs Henderson - Big Leg Woman
TTITLE5=Bugs Henderson - Palace Of The King 
TTITLE6=Bugs Henderson - Judy Likes The Blues
TTITLE7=Bugs Henderson - Drug Store Blues (bonus track)
TTITLE8=Bugs Henderson - Hit The Bricks (bonus track)
EXTD=
EXTT0=
EXTT1=
EXTT2=
EXTT3=
EXTT4=
EXTT5=
EXTT6=
EXTT7=
EXTT8=
PLAYORDER=
